<svg xmlns="http://www.w3.org/2000/svg" height="28" viewBox="0 -960 960 960" width="28"><path d="m480-562-74-74 51-51H307v-106h150l-51-51 74-74 178 178-178 178ZM265.841-60Q227-60 199.5-87.66 172-115.318 172-154.158 172-193 199.659-220.5q27.66-27.5 66.5-27.5Q305-248 332.5-220.341q27.5 27.66 27.5 66.5Q360-115 332.341-87.5q-27.66 27.5-66.5 27.5Zm422 0Q649-60 621.5-87.66 594-115.318 594-154.158 594-193 621.659-220.5q27.66-27.5 66.5-27.5Q727-248 754.5-220.341q27.5 27.66 27.5 66.5Q782-115 754.341-87.5q-27.66 27.5-66.5 27.5ZM4-804v-106h152l180 376h286l162-294h122L710-476q-12 23-33.949 36.5Q654.102-426 628-426H318l-32 56h496v106H264q-53 0-79-45t-1-93l50-94L90-804H4Z"/></svg>